<svg width="30" height="30" viewBox="0 0 30 30" fill="none" xmlns="http://www.w3.org/2000/svg">
<path d="M10.2929 13.7071C9.90237 13.3166 9.90237 12.6834 10.2929 12.2929C10.6834 11.9024 11.3166 11.9024 11.7071 12.2929L15.9497 16.5355C16.3403 16.9261 16.3403 17.5592 15.9497 17.9497C15.5592 18.3403 14.9261 18.3403 14.5355 17.9497L10.2929 13.7071Z" fill="#144DDE"/>
<path d="M18.8366 12.2929C19.2271 11.9024 19.8602 11.9024 20.2508 12.2929C20.6413 12.6834 20.6413 13.3166 20.2508 13.7071L16.0081 17.9497C15.6176 18.3403 14.9844 18.3403 14.5939 17.9497C14.2034 17.5592 14.2034 16.9261 14.5939 16.5355L18.8366 12.2929Z" fill="#144DDE"/>
</svg>
