<svg width="30" height="30" viewBox="0 0 30 30" fill="none" xmlns="http://www.w3.org/2000/svg">
<path d="M23.71 22.29L20.31 18.9C21.407 17.5025 22.0022 15.7767 22 14C22 12.4178 21.5308 10.871 20.6518 9.55544C19.7727 8.23985 18.5233 7.21447 17.0615 6.60897C15.5997 6.00347 13.9911 5.84504 12.4393 6.15372C10.8874 6.4624 9.46197 7.22433 8.34315 8.34315C7.22433 9.46197 6.4624 10.8874 6.15372 12.4393C5.84504 13.9911 6.00347 15.5997 6.60897 17.0615C7.21447 18.5233 8.23985 19.7727 9.55544 20.6518C10.871 21.5308 12.4178 22 14 22C15.7767 22.0022 17.5025 21.407 18.9 20.31L22.29 23.71C22.383 23.8037 22.4936 23.8781 22.6154 23.9289C22.7373 23.9797 22.868 24.0058 23 24.0058C23.132 24.0058 23.2627 23.9797 23.3846 23.9289C23.5064 23.8781 23.617 23.8037 23.71 23.71C23.8037 23.617 23.8781 23.5064 23.9289 23.3846C23.9797 23.2627 24.0058 23.132 24.0058 23C24.0058 22.868 23.9797 22.7373 23.9289 22.6154C23.8781 22.4936 23.8037 22.383 23.71 22.29ZM8 14C8 12.8133 8.3519 11.6533 9.01119 10.6666C9.67047 9.67989 10.6075 8.91085 11.7039 8.45673C12.8003 8.0026 14.0067 7.88378 15.1705 8.11529C16.3344 8.3468 17.4035 8.91825 18.2426 9.75736C19.0818 10.5965 19.6532 11.6656 19.8847 12.8295C20.1162 13.9933 19.9974 15.1997 19.5433 16.2961C19.0892 17.3925 18.3201 18.3295 17.3334 18.9888C16.3467 19.6481 15.1867 20 14 20C12.4087 20 10.8826 19.3679 9.75736 18.2426C8.63214 17.1174 8 15.5913 8 14Z" fill="#144DDE"/>
</svg>
